PathFileType	4	(X/Y/Z)	 s03c0303.trc
DataRate	CameraRate	NumFrames	NumMarkers	Units	OrigDataRate	OrigDataStartFrame	OrigNumFrames
200	200	4	50	mm	200	1251	2000
Frame#	Time	racr			lacr			c7			jug			rlel			rdr			llel			ldr			s2			lic			ric			lasi			rasi			rpsi			lpsi			rgt			lgt			rth1			rth2			rth3			rth4			rlfc			rmfc			rsh1			rsh2			rsh3			rsh4			rlmal			rcal			rtoe			rmt5			rmt1			lth1			lth2			lth4			lth3			llfc			lmfc			lsh1			lsh2			lsh3			lsh4			llmal			lcal			ltoe			lmt1			lmt5			SBIKE			LBIKE			RBIKE			
		X1	Y1	Z1	X2	Y2	Z2	X3	Y3	Z3	X4	Y4	Z4	X5	Y5	Z5	X6	Y6	Z6	X7	Y7	Z7	X8	Y8	Z8	X9	Y9	Z9	X10	Y10	Z10	X11	Y11	Z11	X12	Y12	Z12	X13	Y13	Z13	X14	Y14	Z14	X15	Y15	Z15	X16	Y16	Z16	X17	Y17	Z17	X18	Y18	Z18	X19	Y19	Z19	X20	Y20	Z20	X21	Y21	Z21	X22	Y22	Z22	X23	Y23	Z23	X24	Y24	Z24	X25	Y25	Z25	X26	Y26	Z26	X27	Y27	Z27	X28	Y28	Z28	X29	Y29	Z29	X30	Y30	Z30	X31	Y31	Z31	X32	Y32	Z32	X33	Y33	Z33	X34	Y34	Z34	X35	Y35	Z35	X36	Y36	Z36	X37	Y37	Z37	X38	Y38	Z38	X39	Y39	Z39	X40	Y40	Z40	X41	Y41	Z41	X42	Y42	Z42	X43	Y43	Z43	X44	Y44	Z44	X45	Y45	Z45	X46	Y46	Z46	X47	Y47	Z47	X48	Y48	Z48	X49	Y49	Z49	X50	Y50	Z50	
1251	6.2550	773.023188	1447.235033	-67.459020	806.761825	1436.583214	-394.962892	749.440651	1531.080481	-240.603844	730.285113	1350.564343	-228.656505	657.915833	1197.184782	40.127369	768.602502	942.006871	-30.198842	689.537503	1195.576089	-510.209917	756.852133	927.464530	-413.213922	203.645075	1278.284718	-258.059382	398.574773	1270.490638	-424.985616	357.102551	1327.253367	-66.752246	406.430135	1205.597117	-371.712011	391.964033	1250.911636	-102.921920	230.653246	1333.090325	-221.195346	243.224002	1320.288032	-302.641060	310.730462	1232.436155	-41.413903	311.941222	1148.690933	-427.058773	417.120656	1120.707664	-0.546688	497.576096	1083.048871	7.461651	548.350122	1014.256631	18.176476	520.022888	1106.567928	-10.911181	618.351417	900.271288	12.443955	630.896088	873.326939	-113.813607	481.892582	802.216682	17.802058	422.077634	740.568144	-7.198559	338.141075	717.224458	-19.249406	442.032121	717.815580	-28.992600	226.109449	656.247248	-52.698653	155.482530	669.817088	-94.682402	349.479533	429.471880	-121.006822	265.144305	504.282053	-41.921710	287.804010	502.956316	-156.052755	328.193058	998.571083	-438.876902	357.964666	916.822165	-435.728537	394.136784	920.736491	-431.987984	342.592700	830.166165	-423.232846	374.437352	709.256890	-395.863527	368.631387	693.198419	-278.053492	298.702416	557.309032	-430.337211	291.947661	473.431089	-418.212057	241.747691	398.401287	-418.168249	323.592909	463.455898	-396.770328	189.969565	282.752058	-406.334522	119.087784	267.334494	-366.631989	394.189396	122.677838	-351.500871	307.570267	166.603450	-313.055839	280.233115	154.080656	-430.909145	-116.263632	1019.863328	-237.349968	-7.294580	83.855642	-437.039584	-13.576086	81.207174	-36.747517	
1252	6.2600	770.423347	1448.680410	-64.173630	807.042529	1438.687004	-391.321094	747.887695	1532.588346	-237.240930	729.576107	1351.967835	-225.904748	655.587158	1197.344406	40.640167	768.581688	942.797269	-30.040066	692.959599	1197.161154	-508.333286	757.477650	927.412573	-413.599233	203.446572	1278.452092	-261.466542	400.330896	1271.245312	-424.928848	354.044013	1328.300547	-67.862735	407.185780	1206.419053	-371.640215	389.702189	1252.535439	-103.278287	229.785982	1332.586557	-222.533197	242.315352	1321.548768	-304.688099	308.114259	1233.998186	-42.959981	312.347813	1149.405624	-428.272002	415.844402	1123.811380	-1.360172	496.918484	1087.469087	7.180529	548.588936	1019.331619	18.041231	519.088697	1111.263749	-11.180012	621.506708	907.314372	11.971512	635.968999	880.438713	-113.733500	487.537929	807.346035	17.437606	428.607990	744.687156	-7.653906	345.131413	720.002684	-19.766553	448.894305	722.231793	-29.449769	233.910598	656.925562	-52.932809	162.869562	669.294750	-94.802898	360.814475	432.365777	-121.080550	275.351701	505.788511	-42.159414	298.215604	504.604763	-155.899079	326.725546	999.398092	-440.098504	355.505585	917.244571	-437.035218	391.707145	920.721089	-433.057981	338.920065	830.802402	-424.780876	369.145075	709.504079	-397.055511	362.943943	693.449723	-278.907531	292.592439	558.267165	-431.716666	285.683398	474.393473	-419.873677	235.212036	399.561089	-419.771077	317.346765	464.280206	-398.546188	183.617978	283.834376	-408.069394	112.522959	270.508949	-369.084666	383.154189	117.647419	-348.862816	298.005140	165.330413	-313.436460	271.255678	152.676132	-431.231989	-116.370422	1019.836447	-237.489994	-7.303949	83.852087	-437.049038	-13.564616	81.242142	-36.756634	
1253	6.2650	767.992354	1449.970146	-60.896544	807.345816	1440.586698	-387.520871	746.379269	1534.169574	-233.783837	728.770729	1353.477953	-222.831906	653.163079	1197.474964	41.188360	768.606424	943.906135	-29.812747	696.117150	1198.654041	-506.363811	758.162168	927.384519	-413.914541	202.936019	1278.941829	-262.712945	401.463263	1272.183565	-424.947721	350.768964	1329.558265	-68.791388	407.656012	1207.231400	-371.927803	387.809875	1254.129207	-103.796568	228.352152	1333.212269	-225.235925	242.617731	1321.485613	-308.424783	305.596289	1235.753660	-44.349257	312.795281	1150.247401	-428.903022	414.532791	1127.069513	-2.155083	495.960898	1091.657997	6.799850	548.473011	1024.144001	17.692421	517.931528	1115.748221	-11.489442	624.841141	914.074425	11.039936	640.933631	887.305890	-113.802508	492.962999	812.204515	16.672668	435.198259	748.395062	-8.137357	352.094569	722.200829	-19.962813	455.607103	725.850365	-30.799314	241.476011	656.724830	-53.089778	170.144837	668.021486	-94.854586	372.220481	434.532391	-121.190380	285.516849	506.589884	-42.255810	308.267170	505.831141	-155.919106	325.485861	1000.571976	-441.445006	353.372551	918.076810	-438.434002	389.557384	921.175635	-434.174181	335.841622	831.769385	-426.523394	364.598386	710.179302	-398.292879	357.886838	694.243830	-279.866112	287.202899	559.690665	-433.311750	279.896913	475.810187	-421.720883	229.086241	401.176209	-421.607612	311.511991	465.748971	-400.978057	177.466347	285.559336	-410.076965	106.160818	274.392296	-371.696484	372.498840	114.582668	-348.088436	288.422398	164.676847	-313.972568	262.205335	151.833238	-431.694556	-116.510411	1019.863994	-237.450214	-7.316752	83.860085	-437.039077	-13.584979	81.236308	-36.763962	
1254	6.2700	765.599222	1451.300336	-57.651025	807.505377	1442.430457	-383.794912	744.340163	1535.038414	-230.530638	728.832819	1354.153415	-219.970605	650.406786	1197.652653	41.836748	768.555502	944.874273	-29.214915	698.978135	1200.196740	-504.386387	758.813511	927.127484	-414.248514	201.467939	1280.230782	-265.257637	402.184970	1273.345348	-424.962956	347.407483	1330.910590	-69.461905	407.734270	1208.559213	-372.020177	386.386755	1255.828873	-103.841861	226.892726	1334.284351	-227.452621	241.445027	1323.821066	-310.792573	303.167853	1237.765168	-45.568154	312.968453	1151.449551	-429.791637	413.049241	1130.230088	-3.035501	494.847307	1095.610939	6.344420	548.007710	1028.633646	17.127143	516.669140	1120.121783	-11.694457	627.369845	920.722215	9.670172	645.400765	894.319496	-114.924302	498.126788	816.697582	15.749539	441.572010	751.676253	-8.801565	358.999785	723.965203	-19.817430	462.354396	729.488616	-31.505556	249.104260	655.852865	-53.109810	177.303530	665.828638	-94.724421	383.649853	436.168808	-121.375645	295.648763	506.733168	-42.285107	318.580654	506.275118	-155.978710	324.553075	1002.128802	-442.655266	351.666412	919.321848	-439.779689	387.865948	922.197641	-435.258244	333.266068	833.203653	-428.369998	360.963004	711.193790	-399.576517	354.615822	694.820915	-280.662936	282.499415	561.574970	-434.944889	274.700535	477.723493	-423.684681	223.385555	403.369980	-423.670260	306.257328	467.104303	-402.394159	171.585700	287.722737	-412.211095	100.226188	278.945800	-373.862484	361.781342	112.154445	-347.784952	279.051505	164.591384	-314.644932	252.846932	151.424825	-432.162065	-116.593748	1019.826883	-237.449090	-7.340061	83.883881	-437.032043	-13.591803	81.200204	-36.747303	
